<svg xmlns="http://www.w3.org/2000/svg" viewBox="0 0 200 200" width="100%" height="100%" shape-rendering="geometricPrecision">
    <!-- Core Sphere -->
    <circle cx="100" cy="100" r="52" fill="#1e3a8a" stroke="#0f172a" stroke-width="8" />
    <path d="M 105 55 Q 120 50 135 65 Q 145 80 145 95 Q 120 70 105 55 Z" fill="#3b82f6" opacity="0.6"/>

    <!-- Arms Layer -->
    <g id="arms">
        <g stroke="#0f172a" stroke-width="16" stroke-linecap="round" stroke-linejoin="round" fill="none">
            <path d="M 40 100 L 25 125 L 35 145" /> <path d="M 160 100 L 145 135 L 115 125" />
        </g>
        <g stroke="#1e3a8a" stroke-width="10" stroke-linecap="round" stroke-linejoin="round" fill="none">
            <path d="M 40 100 L 25 125 L 35 145" /> <path d="M 160 100 L 145 135 L 115 125" />
        </g>
        
    </g>

    <!-- Outer Shells -->
    <g id="shells" stroke="#0f172a" stroke-width="8" stroke-linejoin="round">
        <path d="M 30 105 L 50 105 L 60 135 L 140 135 L 150 105 L 170 105 L 175 135 L 155 175 L 100 190 L 45 175 L 25 135 Z" fill="#eab308" />
        <path d="M 38 112 L 48 112 L 56 138 L 144 138 L 152 112 L 162 112 L 166 135 L 148 168 L 100 180 L 52 168 L 34 135 Z" fill="none" stroke="#fde047" stroke-width="4" opacity="0.6"/>

        <text x="100" y="167" font-family="'Courier New', monospace" font-weight="900" font-size="34" fill="#fde047" stroke="none" text-anchor="middle" opacity="0.5" letter-spacing="2">KDI</text>
        <text x="100" y="165" font-family="'Courier New', monospace" font-weight="900" font-size="34" fill="#1e3a8a" stroke="none" text-anchor="middle" letter-spacing="2">KDI</text>

        <path d="M 25 85 L 45 85 L 60 45 L 90 35 L 90 15 L 55 20 L 30 45 L 20 65 Z" fill="#eab308" />
        <path d="M 175 85 L 155 85 L 140 45 L 110 35 L 110 15 L 145 20 L 170 45 L 180 65 Z" fill="#eab308" />
    </g>

    <!-- Antenna Container -->
    <g id="antenna">
        <path d="M 100 45 L 100 10" stroke="#0f172a" stroke-width="12" stroke-linecap="round" />
        <path d="M 100 45 L 100 10" stroke="#334155" stroke-width="6" stroke-linecap="round" />
        <circle cx="100" cy="8" r="8" fill="#a78bfa"  />
    </g>
    <g id="face">
        <g fill="#22d3ee">
            <rect x="75" y="82" width="18" height="15" rx="4" /> <rect x="110" y="88" width="12" height="8" rx="3" /> <rect x="94" y="108" width="8" height="4" rx="2" /><g transform="translate(140, 15)"><path d="M 0 0 L 30 0 L 30 25 L 15 25 L 10 35 L 10 25 L 0 25 Z" fill="#0f172a" stroke="#eab308" stroke-width="3" stroke-linejoin="round"/><text x="15" y="19" font-family="'Courier New', monospace" font-weight="900" font-size="18" fill="#eab308" text-anchor="middle">?</text></g>
        </g>
    </g>
</svg>